#!OML:ASF I:\Actors\actors\Patient Classification 1\Patient 1\Session 1\Subject1.ASF
:FULLY-SPECIFIED
:DEGREES
1007
root -0.59815 17.6223 7.93912 13.0555 -32.3905 -6.24083
lowerback 3.02781 -3.83192 2.5661
upperback -9.82465 -4.55619 5.83727
thorax -12.0186 -2.16737 5.55191
lowerneck -12.9747 2.24519 3.04909
upperneck 8.69061 1.84782 5.03743
head 4.71581 1.32762 1.21607
rclavicle -8.28932e-014 -4.29375e-014
rhumerus -25.1399 25.9094 -88.4088
rradius 102.64
rwrist -38.8894
rhand -15.2033 -66.4549
rfingers 7.12502
rthumb 10.9687 -623.852
lclavicle -8.28932e-014 -4.29375e-014
lhumerus 58.519 -78.9445 27.0297
lradius 78.1022
lwrist 50.5064
lhand -56.3421 10.1447
lfingers 7.12502
lthumb -28.6631 37.9659
rfemur -16.9606 26.4304 15.6672
rtibia 8.1634
rfoot -8.02676 5.29969
rtoes -0.970802
lfemur 2.5467 -18.6396 -15.827
ltibia 1.16305
lfoot -28.8875 49.8895
ltoes 20.0247
1008
root -0.60018 17.6235 7.93265 12.4696 -32.715 -5.57803
lowerback 3.72095 -4.11663 1.96799
upperback -9.87711 -4.95701 5.9124
thorax -12.4189 -2.28486 6.09814
lowerneck -12.738 2.59163 3.43773
upperneck 8.64933 2.32582 4.46477
head 4.66882 1.53516 1.00908
rclavicle -4.45278e-014 -1.43125e-014
rhumerus -24.98 23.8608 -87.7232
rradius 103.581
rwrist -40.0017
rhand -14.342 -67.6172
rfingers 7.12502
rthumb 11.7993 -622.735
lclavicle -4.45278e-014 -1.43125e-014
lhumerus 61.1103 -78.607 26.1152
lradius 77.254
lwrist 48.2776
lhand -55.2856 11.375
lfingers 7.12502
lthumb -27.6533 39.3624
rfemur -16.7682 26.9609 15.0009
rtibia 8.03297
rfoot -7.98439 4.87989
rtoes -1.32508
lfemur 2.25712 -17.8386 -16.2448
ltibia 2.00969
lfoot -27.4163 49.2137
ltoes 18.6073
1009
root -0.614936 17.6235 7.97943 13.124 -32.8067 -6.4619
lowerback 3.07703 -4.39934 3.07871
upperback -9.92465 -5.24447 6.27834
thorax -12.1331 -2.52523 5.8617
lowerneck -12.3071 2.91102 3.66313
upperneck 8.64557 2.78072 4.11187
head 4.60129 1.73945 0.891306
rclavicle 6.0033e-014 1.27222e-014
rhumerus -24.8871 22.2801 -87.0561
rradius 104.5
rwrist -40.5863
rhand -13.9056 -68.3965
rfingers 7.12502
rthumb 12.2201 -621.981
lclavicle 6.0033e-014 1.27222e-014
lhumerus 62.9505 -78.1992 26.0821
lradius 76.2231
lwrist 47.1725
lhand -54.1588 11.6276
lfingers 7.12502
lthumb -26.5753 39.783
rfemur -16.4463 27.1122 15.9304
rtibia 7.55244
rfoot -7.89288 4.99429
rtoes -1.36382
lfemur 2.18194 -17.2742 -15.3078
ltibia 2.32739
lfoot -26.256 48.5997
ltoes 17.2215
1010
root -0.622696 17.6171 8.00729 13.5897 -33.2946 -6.94767
lowerback 2.67292 -4.58191 3.59979
upperback -10.0005 -5.45675 6.53192
thorax -11.9912 -2.67309 5.84513
lowerneck -11.9833 3.20984 3.90358
upperneck 8.81157 3.17449 3.9173
head 4.60508 1.92958 0.818738
rclavicle 7.87187e-014 -1.27222e-014
rhumerus -24.6021 20.8284 -86.3291
rradius 105.4
rwrist -41.0297
rhand -12.788 -68.8111
rfingers 7.12502
rthumb 13.2975 -621.633
lclavicle 7.87187e-014 -1.27222e-014
lhumerus 65.6828 -77.6045 24.9457
lradius 75.3627
lwrist 47.1925
lhand -53.5205 10.0747
lfingers 7.12502
lthumb -25.9643 38.3212
rfemur -16.568 27.1566 16.3246
rtibia 7.44464
rfoot -7.76339 5.49967
rtoes -0.962359
lfemur 2.12002 -16.8208 -14.7889
ltibia 2.57158
lfoot -25.4907 48.1394
ltoes 15.8754
1011
root -0.625468 17.6079 8.02528 13.8884 -34.0193 -7.16055
lowerback 2.39511 -4.71595 3.69785
upperback -10.059 -5.6413 6.72027
thorax -11.8701 -2.76993 5.99532
lowerneck -11.8316 3.43847 4.12093
upperneck 9.10379 3.46335 3.73187
head 4.67749 2.07282 0.749538
rclavicle -3.57812e-014 5.88403e-014
rhumerus -23.9548 19.3134 -85.4202
rradius 106.238
rwrist -41.5379
rhand -11.7927 -68.434
rfingers 7.12502
rthumb 14.2567 -622.075
lclavicle -3.57812e-014 5.88403e-014
lhumerus 69.0592 -76.8348 22.9825
lradius 74.689
lwrist 46.5564
lhand -53.201 10.1236
lfingers 7.12502
lthumb -25.6583 38.4146
rfemur -16.9221 27.1883 16.3907
rtibia 7.62124
rfoot -7.67078 6.19255
rtoes -0.546243
lfemur 2.16973 -16.5705 -14.6288
ltibia 2.70063
lfoot -25.4801 47.8447
ltoes 15.1202
